<svg id="Laag_1" data-name="Laag 1" xmlns="http://www.w3.org/2000/svg" viewBox="0 0 283.44 151.2"><defs><style>.cls-1{fill:#4a4a4a;}</style></defs><title>oba</title><path class="cls-1" d="M424,373.72c-2.34-.46-4.73-.75-7-1.41a36,36,0,0,1-19.45-13,4.08,4.08,0,0,0-.4-.44s-.15,0-.37-.05v12.4H369.51v-147c0-.56,0-1.12,0-1.67H399c0,.55.06,1.11.06,1.67V286c.37-.25.56-.32.66-.46,4.72-6.18,11.16-9.54,18.63-11.06,9.34-1.91,18.59-1.79,27.51,2.05,9.33,4,16.07,10.85,20.8,19.73a59,59,0,0,1,6.7,31c-.46,10.33-3.18,19.93-9.32,28.37-7.15,9.81-16.91,15.35-28.78,17.34-1.83.31-3.69.5-5.54.75Zm20.13-50.28c-.22-2-.3-4-.69-5.93-1.62-8-5.95-13.77-13.71-16.68a27.11,27.11,0,0,0-13.45-1.29c-7.23,1-13.06,4.35-16.48,11-4.1,7.95-4.2,16.21-.79,24.42,2.57,6.18,7.34,10.05,13.75,11.84a28,28,0,0,0,15.49-.09,20.37,20.37,0,0,0,13-10.7A28.23,28.23,0,0,0,444.09,323.44Z" transform="translate(-279.24 -222.52)"/><path class="cls-1" d="M279.24,320.68c.41-2.51.7-5.05,1.24-7.53a37.55,37.55,0,0,1,10.4-19.08A34.76,34.76,0,0,1,311,284.32a38.41,38.41,0,0,1,22.88,3.4c9.51,4.73,15.62,12.44,18.59,22.52,3.62,12.26,2.79,24.25-3.66,35.43s-16.27,16.8-29,17.79a38.05,38.05,0,0,1-18.72-3.09c-8.78-3.92-14.81-10.52-18.53-19.31a42.27,42.27,0,0,1-3.2-13.7,7.12,7.12,0,0,0-.18-.92Zm19.43,3.17c.06.86.08,1.9.23,2.93.94,6.35,4.16,11,10.25,13.34a21.51,21.51,0,0,0,15,.19,15.37,15.37,0,0,0,8.95-7.7,18.23,18.23,0,0,0,1.93-7.48c.25-4.68-.66-9.06-3.61-12.85-5.81-7.47-17.82-7.68-24.45-3.92C301.06,311.73,298.85,317.16,298.67,323.85Z" transform="translate(-279.24 -222.52)"/><path class="cls-1" d="M562.68,336c-.41,2.14-.67,4.33-1.26,6.42-1.86,6.61-5.46,12-11.93,14.77-9.36,4-22.88,2.31-28.94-10.69a49.36,49.36,0,0,1-4.37-17c-.46-5.72-.57-11.48-.84-17.22,0-.55,0-1.1,0-1.79a11.34,11.34,0,0,0-8.45,3.17c-3.91,3.73-4.92,8.44-4.32,13.62a23,23,0,0,0,7.07,14.05,13.66,13.66,0,0,0,1.5,1.14l-12.42,12.13c-1.72-2.46-3.5-4.67-4.93-7.09a47.12,47.12,0,0,1-6.3-22.23,50.83,50.83,0,0,1,1.61-16.25c2.45-8.68,8.14-14.17,16.74-16.72a46.76,46.76,0,0,1,12.86-2c13.79-.11,27.58-.14,41.38-.2.19,0,.38,0,.65.07v20.27h-9a5.31,5.31,0,0,0,.5.52c5.93,4,8.81,9.82,10,16.66.18,1.09.33,2.19.5,3.29Zm-33.3-21.65h-.18c.27,3.58.44,7.17.84,10.73a20,20,0,0,0,3.08,9.1c3.31,4.92,10.45,5.15,13.23-.94,1.74-3.8,1.56-7.7.58-11.6-1.12-4.48-3.36-8.17-7.77-10.19-3-1.35-6.12-.92-9.21-.93-.19,0-.52.53-.54.83C529.34,312.39,529.38,313.39,529.38,314.39Z" transform="translate(-279.24 -222.52)"/></svg>